<svg width="323" height="79" viewBox="0 0 323 79" fill="none" xmlns="http://www.w3.org/2000/svg">
<path d="M19.2383 11.0039V32H11.9922V11.0039H0.605469V5.16406H30.6445V11.0039H19.2383Z" fill="#AD44FF"/>
<path d="M60.1367 11.2383C59.9414 11.1732 59.6549 11.0885 59.2773 10.9844C58.9128 10.8672 58.4831 10.7565 57.9883 10.6523C57.4935 10.5352 56.9466 10.4375 56.3477 10.3594C55.7617 10.2812 55.1562 10.2422 54.5312 10.2422C53.2292 10.2422 52.0117 10.4049 50.8789 10.7305C49.7591 11.043 48.7109 11.4661 47.7344 12C46.7578 12.5208 45.8464 13.1198 45 13.7969C44.1667 14.4609 43.3984 15.1445 42.6953 15.8477V32H35.4492V5.16406H42.6953V9.51953C43.5677 8.86849 44.4596 8.24349 45.3711 7.64453C46.2956 7.03255 47.2526 6.49219 48.2422 6.02344C49.2448 5.55469 50.2995 5.18359 51.4062 4.91016C52.513 4.6237 53.6849 4.48047 54.9219 4.48047C55.3906 4.48047 55.8659 4.50651 56.3477 4.55859C56.8424 4.59766 57.3177 4.64974 57.7734 4.71484C58.2422 4.77995 58.6784 4.85156 59.082 4.92969C59.4857 5.00781 59.8372 5.08594 60.1367 5.16406V11.2383ZM87.5 32V29.3633C86.5755 29.8711 85.5794 30.3203 84.5117 30.7109C83.457 31.1016 82.3568 31.4336 81.2109 31.707C80.0651 31.9805 78.8802 32.1823 77.6562 32.3125C76.4453 32.4557 75.2214 32.5273 73.9844 32.5273C72.5391 32.5273 71.1393 32.3906 69.7852 32.1172C68.444 31.8438 67.2526 31.401 66.2109 30.7891C65.1693 30.1771 64.3294 29.3763 63.6914 28.3867C63.0664 27.3971 62.7539 26.1862 62.7539 24.7539C62.7539 22.944 63.2487 21.4401 64.2383 20.2422C65.2279 19.0312 66.7383 18.0417 68.7695 17.2734C70.8008 16.5052 73.3659 15.9128 76.4648 15.4961C79.5768 15.0794 83.2552 14.7539 87.5 14.5195V13.9531C87.5 13.5104 87.3828 13.0742 87.1484 12.6445C86.9141 12.2018 86.4844 11.8177 85.8594 11.4922C85.2474 11.1536 84.401 10.8802 83.3203 10.6719C82.2526 10.4635 80.8854 10.3594 79.2188 10.3594C77.9036 10.3594 76.6016 10.431 75.3125 10.5742C74.0365 10.7044 72.7995 10.8867 71.6016 11.1211C70.4167 11.3555 69.2904 11.6289 68.2227 11.9414C67.1549 12.2539 66.1849 12.5794 65.3125 12.918V6.47266C66.224 6.23828 67.2461 6.01042 68.3789 5.78906C69.5117 5.56771 70.6901 5.37891 71.9141 5.22266C73.138 5.05339 74.375 4.92318 75.625 4.83203C76.875 4.72786 78.0729 4.67578 79.2188 4.67578C81.4714 4.67578 83.5482 4.86458 85.4492 5.24219C87.3503 5.60677 88.9844 6.17969 90.3516 6.96094C91.7318 7.74219 92.806 8.73177 93.5742 9.92969C94.3555 11.1276 94.7461 12.5534 94.7461 14.207V32H87.5ZM87.5 19.7539C84.7135 19.8581 82.3438 20.0078 80.3906 20.2031C78.4505 20.3984 76.8359 20.6263 75.5469 20.8867C74.2578 21.1471 73.2422 21.4271 72.5 21.7266C71.7708 22.026 71.224 22.332 70.8594 22.6445C70.4948 22.957 70.2669 23.2695 70.1758 23.582C70.0977 23.8945 70.0586 24.181 70.0586 24.4414C70.0586 24.7539 70.1432 25.0599 70.3125 25.3594C70.4818 25.6458 70.7747 25.8997 71.1914 26.1211C71.6211 26.3424 72.1875 26.5182 72.8906 26.6484C73.5938 26.7786 74.4792 26.8438 75.5469 26.8438C76.7318 26.8438 77.8906 26.7526 79.0234 26.5703C80.1562 26.388 81.2305 26.1406 82.2461 25.8281C83.2617 25.5026 84.2122 25.125 85.0977 24.6953C85.9961 24.2526 86.7969 23.7839 87.5 23.2891V19.7539ZM128.594 32V16.9609C128.594 15.9583 128.509 15.0534 128.34 14.2461C128.171 13.4258 127.852 12.7292 127.383 12.1562C126.927 11.5703 126.283 11.1211 125.449 10.8086C124.629 10.4831 123.568 10.3203 122.266 10.3203C121.276 10.3203 120.234 10.457 119.141 10.7305C118.06 10.9909 116.986 11.3424 115.918 11.7852C114.85 12.2279 113.828 12.7422 112.852 13.3281C111.888 13.9141 111.029 14.526 110.273 15.1641V32H103.027V5.16406H110.273V8.83594C111.185 8.3151 112.155 7.80078 113.184 7.29297C114.212 6.77214 115.306 6.30339 116.465 5.88672C117.624 5.47005 118.854 5.13151 120.156 4.87109C121.458 4.61068 122.832 4.48047 124.277 4.48047C126.087 4.48047 127.702 4.70182 129.121 5.14453C130.553 5.57422 131.764 6.19271 132.754 7C133.743 7.79427 134.499 8.76432 135.02 9.91016C135.553 11.043 135.82 12.3125 135.82 13.7188V32H128.594ZM168.848 12.7227C168.34 12.4753 167.669 12.1953 166.836 11.8828C166.003 11.5703 165.059 11.2773 164.004 11.0039C162.949 10.7174 161.803 10.4831 160.566 10.3008C159.329 10.1055 158.06 10.0078 156.758 10.0078C155.716 10.0078 154.824 10.0404 154.082 10.1055C153.353 10.1706 152.734 10.2552 152.227 10.3594C151.732 10.4635 151.335 10.5872 151.035 10.7305C150.749 10.8607 150.527 10.9974 150.371 11.1406C150.215 11.2839 150.111 11.4271 150.059 11.5703C150.02 11.7135 150 11.8438 150 11.9609C150 12.3516 150.195 12.6966 150.586 12.9961C150.977 13.2826 151.51 13.543 152.188 13.7773C152.865 13.9987 153.652 14.2135 154.551 14.4219C155.449 14.6172 156.4 14.8255 157.402 15.0469C158.418 15.2552 159.46 15.4896 160.527 15.75C161.608 15.9974 162.65 16.2904 163.652 16.6289C164.668 16.9674 165.625 17.3646 166.523 17.8203C167.422 18.263 168.21 18.7839 168.887 19.3828C169.564 19.9818 170.098 20.6719 170.488 21.4531C170.879 22.2344 171.074 23.1263 171.074 24.1289C171.074 25.418 170.846 26.5247 170.391 27.4492C169.935 28.3737 169.323 29.1549 168.555 29.793C167.799 30.431 166.921 30.9453 165.918 31.3359C164.915 31.7135 163.861 32.0065 162.754 32.2148C161.66 32.4232 160.547 32.5599 159.414 32.625C158.294 32.6901 157.227 32.7227 156.211 32.7227C153.555 32.7227 151.094 32.5013 148.828 32.0586C146.576 31.6289 144.583 31.0885 142.852 30.4375V24.0312C144.635 25.0208 146.667 25.7956 148.945 26.3555C151.237 26.9154 153.685 27.1953 156.289 27.1953C157.826 27.1953 159.076 27.1172 160.039 26.9609C161.016 26.7917 161.777 26.5833 162.324 26.3359C162.871 26.0755 163.242 25.7956 163.438 25.4961C163.633 25.1966 163.73 24.9102 163.73 24.6367C163.73 24.207 163.535 23.8359 163.145 23.5234C162.754 23.1979 162.22 22.918 161.543 22.6836C160.866 22.4362 160.078 22.2148 159.18 22.0195C158.281 21.8112 157.324 21.6094 156.309 21.4141C155.306 21.2057 154.271 20.9844 153.203 20.75C152.135 20.5156 151.094 20.2422 150.078 19.9297C149.076 19.6042 148.125 19.2331 147.227 18.8164C146.328 18.3867 145.54 17.8854 144.863 17.3125C144.186 16.7266 143.652 16.056 143.262 15.3008C142.871 14.5326 142.676 13.6471 142.676 12.6445C142.676 11.4596 142.884 10.4375 143.301 9.57812C143.717 8.71875 144.277 7.98958 144.98 7.39062C145.697 6.77865 146.517 6.28385 147.441 5.90625C148.379 5.52865 149.362 5.23568 150.391 5.02734C151.419 4.81901 152.461 4.67578 153.516 4.59766C154.57 4.51953 155.573 4.48047 156.523 4.48047C157.565 4.48047 158.633 4.53255 159.727 4.63672C160.833 4.74089 161.921 4.89062 162.988 5.08594C164.056 5.26823 165.085 5.48307 166.074 5.73047C167.077 5.97786 168.001 6.23828 168.848 6.51172V12.7227ZM190.625 10.8867C189.779 10.8867 189.017 10.9193 188.34 10.9844C187.676 11.0495 187.109 11.2057 186.641 11.4531C186.172 11.7005 185.814 12.0716 185.566 12.5664C185.319 13.0482 185.195 13.7122 185.195 14.5586V15.5547H205.43V21.2773H185.195V32H177.949V13.9531C177.949 12.5729 178.151 11.3359 178.555 10.2422C178.971 9.14844 179.661 8.23047 180.625 7.48828C181.589 6.73307 182.865 6.16016 184.453 5.76953C186.042 5.36589 188.021 5.16406 190.391 5.16406H206.387V10.8867H190.625ZM242.52 30.6719C240.319 31.401 238.118 31.9219 235.918 32.2344C233.73 32.5599 231.491 32.7227 229.199 32.7227C226.27 32.7227 223.659 32.4102 221.367 31.7852C219.089 31.1471 217.168 30.2292 215.605 29.0312C214.043 27.8333 212.852 26.3685 212.031 24.6367C211.211 22.9049 210.801 20.9453 210.801 18.7578C210.801 16.7266 211.211 14.8451 212.031 13.1133C212.865 11.3685 214.036 9.85807 215.547 8.58203C217.07 7.29297 218.906 6.29036 221.055 5.57422C223.203 4.84505 225.599 4.48047 228.242 4.48047C230.677 4.48047 232.904 4.8125 234.922 5.47656C236.953 6.1276 238.691 7.09766 240.137 8.38672C241.595 9.67578 242.721 11.2643 243.516 13.1523C244.323 15.0404 244.727 17.2148 244.727 19.6758V21.4727H218.281C218.516 22.319 218.9 23.0938 219.434 23.7969C219.98 24.5 220.716 25.099 221.641 25.5938C222.565 26.0885 223.698 26.4727 225.039 26.7461C226.393 27.0195 228.008 27.1562 229.883 27.1562C231.211 27.1562 232.513 27.0781 233.789 26.9219C235.065 26.7526 236.257 26.5378 237.363 26.2773C238.47 26.0039 239.466 25.7044 240.352 25.3789C241.25 25.0534 241.973 24.7279 242.52 24.4023V30.6719ZM237.52 16.1602C237.454 15.4961 237.253 14.8125 236.914 14.1094C236.589 13.3932 236.068 12.7487 235.352 12.1758C234.635 11.6029 233.698 11.1341 232.539 10.7695C231.38 10.3919 229.935 10.2031 228.203 10.2031C226.576 10.2031 225.169 10.4049 223.984 10.8086C222.799 11.2122 221.803 11.7135 220.996 12.3125C220.202 12.9115 219.583 13.556 219.141 14.2461C218.698 14.9362 218.411 15.5742 218.281 16.1602H237.52ZM275.996 11.2383C275.801 11.1732 275.514 11.0885 275.137 10.9844C274.772 10.8672 274.342 10.7565 273.848 10.6523C273.353 10.5352 272.806 10.4375 272.207 10.3594C271.621 10.2812 271.016 10.2422 270.391 10.2422C269.089 10.2422 267.871 10.4049 266.738 10.7305C265.618 11.043 264.57 11.4661 263.594 12C262.617 12.5208 261.706 13.1198 260.859 13.7969C260.026 14.4609 259.258 15.1445 258.555 15.8477V32H251.309V5.16406H258.555V9.51953C259.427 8.86849 260.319 8.24349 261.23 7.64453C262.155 7.03255 263.112 6.49219 264.102 6.02344C265.104 5.55469 266.159 5.18359 267.266 4.91016C268.372 4.6237 269.544 4.48047 270.781 4.48047C271.25 4.48047 271.725 4.50651 272.207 4.55859C272.702 4.59766 273.177 4.64974 273.633 4.71484C274.102 4.77995 274.538 4.85156 274.941 4.92969C275.345 5.00781 275.697 5.08594 275.996 5.16406V11.2383Z" fill="white"/>
<path d="M205.926 49.7227C205.418 49.4753 204.747 49.1953 203.914 48.8828C203.081 48.5703 202.137 48.2773 201.082 48.0039C200.027 47.7174 198.882 47.4831 197.645 47.3008C196.408 47.1055 195.138 47.0078 193.836 47.0078C192.794 47.0078 191.902 47.0404 191.16 47.1055C190.431 47.1706 189.812 47.2552 189.305 47.3594C188.81 47.4635 188.413 47.5872 188.113 47.7305C187.827 47.8607 187.605 47.9974 187.449 48.1406C187.293 48.2839 187.189 48.4271 187.137 48.5703C187.098 48.7135 187.078 48.8438 187.078 48.9609C187.078 49.3516 187.273 49.6966 187.664 49.9961C188.055 50.2826 188.589 50.543 189.266 50.7773C189.943 50.9987 190.73 51.2135 191.629 51.4219C192.527 51.6172 193.478 51.8255 194.48 52.0469C195.496 52.2552 196.538 52.4896 197.605 52.75C198.686 52.9974 199.728 53.2904 200.73 53.6289C201.746 53.9674 202.703 54.3646 203.602 54.8203C204.5 55.263 205.288 55.7839 205.965 56.3828C206.642 56.9818 207.176 57.6719 207.566 58.4531C207.957 59.2344 208.152 60.1263 208.152 61.1289C208.152 62.418 207.924 63.5247 207.469 64.4492C207.013 65.3737 206.401 66.1549 205.633 66.793C204.878 67.431 203.999 67.9453 202.996 68.3359C201.993 68.7135 200.939 69.0065 199.832 69.2148C198.738 69.4232 197.625 69.5599 196.492 69.625C195.372 69.6901 194.305 69.7227 193.289 69.7227C190.633 69.7227 188.172 69.5013 185.906 69.0586C183.654 68.6289 181.661 68.0885 179.93 67.4375V61.0312C181.714 62.0208 183.745 62.7956 186.023 63.3555C188.315 63.9154 190.763 64.1953 193.367 64.1953C194.904 64.1953 196.154 64.1172 197.117 63.9609C198.094 63.7917 198.855 63.5833 199.402 63.3359C199.949 63.0755 200.32 62.7956 200.516 62.4961C200.711 62.1966 200.809 61.9102 200.809 61.6367C200.809 61.207 200.613 60.8359 200.223 60.5234C199.832 60.1979 199.298 59.918 198.621 59.6836C197.944 59.4362 197.156 59.2148 196.258 59.0195C195.359 58.8112 194.402 58.6094 193.387 58.4141C192.384 58.2057 191.349 57.9844 190.281 57.75C189.214 57.5156 188.172 57.2422 187.156 56.9297C186.154 56.6042 185.203 56.2331 184.305 55.8164C183.406 55.3867 182.618 54.8854 181.941 54.3125C181.264 53.7266 180.73 53.056 180.34 52.3008C179.949 51.5326 179.754 50.6471 179.754 49.6445C179.754 48.4596 179.962 47.4375 180.379 46.5781C180.796 45.7188 181.355 44.9896 182.059 44.3906C182.775 43.7786 183.595 43.2839 184.52 42.9062C185.457 42.5286 186.44 42.2357 187.469 42.0273C188.497 41.819 189.539 41.6758 190.594 41.5977C191.648 41.5195 192.651 41.4805 193.602 41.4805C194.643 41.4805 195.711 41.5326 196.805 41.6367C197.911 41.7409 198.999 41.8906 200.066 42.0859C201.134 42.2682 202.163 42.4831 203.152 42.7305C204.155 42.9779 205.079 43.2383 205.926 43.5117V49.7227ZM237.781 69V66.3633C236.857 66.8711 235.861 67.3203 234.793 67.7109C233.738 68.1016 232.638 68.4336 231.492 68.707C230.346 68.9805 229.161 69.1823 227.938 69.3125C226.727 69.4557 225.503 69.5273 224.266 69.5273C222.82 69.5273 221.421 69.3906 220.066 69.1172C218.725 68.8438 217.534 68.401 216.492 67.7891C215.451 67.1771 214.611 66.3763 213.973 65.3867C213.348 64.3971 213.035 63.1862 213.035 61.7539C213.035 59.944 213.53 58.4401 214.52 57.2422C215.509 56.0312 217.02 55.0417 219.051 54.2734C221.082 53.5052 223.647 52.9128 226.746 52.4961C229.858 52.0794 233.536 51.7539 237.781 51.5195V50.9531C237.781 50.5104 237.664 50.0742 237.43 49.6445C237.195 49.2018 236.766 48.8177 236.141 48.4922C235.529 48.1536 234.682 47.8802 233.602 47.6719C232.534 47.4635 231.167 47.3594 229.5 47.3594C228.185 47.3594 226.883 47.431 225.594 47.5742C224.318 47.7044 223.081 47.8867 221.883 48.1211C220.698 48.3555 219.572 48.6289 218.504 48.9414C217.436 49.2539 216.466 49.5794 215.594 49.918V43.4727C216.505 43.2383 217.527 43.0104 218.66 42.7891C219.793 42.5677 220.971 42.3789 222.195 42.2227C223.419 42.0534 224.656 41.9232 225.906 41.832C227.156 41.7279 228.354 41.6758 229.5 41.6758C231.753 41.6758 233.829 41.8646 235.73 42.2422C237.632 42.6068 239.266 43.1797 240.633 43.9609C242.013 44.7422 243.087 45.7318 243.855 46.9297C244.637 48.1276 245.027 49.5534 245.027 51.207V69H237.781ZM237.781 56.7539C234.995 56.8581 232.625 57.0078 230.672 57.2031C228.732 57.3984 227.117 57.6263 225.828 57.8867C224.539 58.1471 223.523 58.4271 222.781 58.7266C222.052 59.026 221.505 59.332 221.141 59.6445C220.776 59.957 220.548 60.2695 220.457 60.582C220.379 60.8945 220.34 61.181 220.34 61.4414C220.34 61.7539 220.424 62.0599 220.594 62.3594C220.763 62.6458 221.056 62.8997 221.473 63.1211C221.902 63.3424 222.469 63.5182 223.172 63.6484C223.875 63.7786 224.76 63.8438 225.828 63.8438C227.013 63.8438 228.172 63.7526 229.305 63.5703C230.438 63.388 231.512 63.1406 232.527 62.8281C233.543 62.5026 234.493 62.125 235.379 61.6953C236.277 61.2526 237.078 60.7839 237.781 60.2891V56.7539ZM265.984 47.8867C265.138 47.8867 264.376 47.9193 263.699 47.9844C263.035 48.0495 262.469 48.2057 262 48.4531C261.531 48.7005 261.173 49.0716 260.926 49.5664C260.678 50.0482 260.555 50.7122 260.555 51.5586V52.5547H280.789V58.2773H260.555V69H253.309V50.9531C253.309 49.5729 253.51 48.3359 253.914 47.2422C254.331 46.1484 255.021 45.2305 255.984 44.4883C256.948 43.7331 258.224 43.1602 259.812 42.7695C261.401 42.3659 263.38 42.1641 265.75 42.1641H281.746V47.8867H265.984ZM317.879 67.6719C315.678 68.401 313.478 68.9219 311.277 69.2344C309.09 69.5599 306.85 69.7227 304.559 69.7227C301.629 69.7227 299.018 69.4102 296.727 68.7852C294.448 68.1471 292.527 67.2292 290.965 66.0312C289.402 64.8333 288.211 63.3685 287.391 61.6367C286.57 59.9049 286.16 57.9453 286.16 55.7578C286.16 53.7266 286.57 51.8451 287.391 50.1133C288.224 48.3685 289.396 46.8581 290.906 45.582C292.43 44.293 294.266 43.2904 296.414 42.5742C298.562 41.8451 300.958 41.4805 303.602 41.4805C306.036 41.4805 308.263 41.8125 310.281 42.4766C312.312 43.1276 314.051 44.0977 315.496 45.3867C316.954 46.6758 318.081 48.2643 318.875 50.1523C319.682 52.0404 320.086 54.2148 320.086 56.6758V58.4727H293.641C293.875 59.319 294.259 60.0938 294.793 60.7969C295.34 61.5 296.076 62.099 297 62.5938C297.924 63.0885 299.057 63.4727 300.398 63.7461C301.753 64.0195 303.367 64.1562 305.242 64.1562C306.57 64.1562 307.872 64.0781 309.148 63.9219C310.424 63.7526 311.616 63.5378 312.723 63.2773C313.829 63.0039 314.826 62.7044 315.711 62.3789C316.609 62.0534 317.332 61.7279 317.879 61.4023V67.6719ZM312.879 53.1602C312.814 52.4961 312.612 51.8125 312.273 51.1094C311.948 50.3932 311.427 49.7487 310.711 49.1758C309.995 48.6029 309.057 48.1341 307.898 47.7695C306.74 47.3919 305.294 47.2031 303.562 47.2031C301.935 47.2031 300.529 47.4049 299.344 47.8086C298.159 48.2122 297.163 48.7135 296.355 49.3125C295.561 49.9115 294.943 50.556 294.5 51.2461C294.057 51.9362 293.771 52.5742 293.641 53.1602H312.879Z" fill="white"/>
<line y1="58" x2="164" y2="58" stroke="white" stroke-width="2"/>
<line x1="283" y1="19" x2="321" y2="19" stroke="white" stroke-width="2"/>
</svg>
